<svg xmlns="http://www.w3.org/2000/svg" viewBox="0 0 980 700" role="img" aria-labelledby="title desc">
  <title id="title">TE-KG architecture diagram placeholder</title>
  <desc id="desc">A blue placeholder image for a future TE-KG architecture diagram.</desc>
  <defs>
    <linearGradient id="bg" x1="0" y1="0" x2="0" y2="1">
      <stop offset="0" stop-color="#f8fbff"/>
      <stop offset="1" stop-color="#eaf3ff"/>
    </linearGradient>
    <linearGradient id="card" x1="0" y1="0" x2="1" y2="1">
      <stop offset="0" stop-color="#ffffff"/>
      <stop offset="1" stop-color="#f0f6ff"/>
    </linearGradient>
    <filter id="shadow" x="-20%" y="-20%" width="140%" height="140%">
      <feDropShadow dx="0" dy="18" stdDeviation="18" flood-color="#1f4a8c" flood-opacity=".14"/>
    </filter>
  </defs>
  <rect width="980" height="700" rx="16" fill="url(#bg)"/>
  <g opacity=".55">
    <path d="M-20 112H1000M-20 218H1000M-20 324H1000M-20 430H1000M-20 536H1000M132-20V720M296-20V720M460-20V720M624-20V720M788-20V720" stroke="#d7e6f8" stroke-width="1"/>
  </g>
  <g filter="url(#shadow)">
    <rect x="96" y="94" width="230" height="116" rx="14" fill="url(#card)" stroke="#bfd5f1" stroke-width="2"/>
    <rect x="96" y="292" width="230" height="116" rx="14" fill="url(#card)" stroke="#bfd5f1" stroke-width="2"/>
    <rect x="96" y="490" width="230" height="116" rx="14" fill="url(#card)" stroke="#bfd5f1" stroke-width="2"/>
    <rect x="374" y="236" width="232" height="228" rx="18" fill="#ffffff" stroke="#9ebfe9" stroke-width="2.5"/>
    <rect x="654" y="94" width="230" height="116" rx="14" fill="url(#card)" stroke="#bfd5f1" stroke-width="2"/>
    <rect x="654" y="292" width="230" height="116" rx="14" fill="url(#card)" stroke="#bfd5f1" stroke-width="2"/>
    <rect x="654" y="490" width="230" height="116" rx="14" fill="url(#card)" stroke="#bfd5f1" stroke-width="2"/>
  </g>
  <g fill="none" stroke="#7ca7dc" stroke-width="4" stroke-linecap="round">
    <path d="M326 152C366 152 346 300 374 300"/>
    <path d="M326 350H374"/>
    <path d="M326 548C366 548 346 400 374 400"/>
    <path d="M606 300C634 300 614 152 654 152"/>
    <path d="M606 350H654"/>
    <path d="M606 400C634 400 614 548 654 548"/>
  </g>
  <g font-family="Arial, Helvetica, sans-serif">
    <text x="490" y="306" text-anchor="middle" fill="#173f78" font-size="30" font-weight="700">TE-KG</text>
    <text x="490" y="344" text-anchor="middle" fill="#31588f" font-size="18" font-weight="600">Architecture</text>
    <text x="490" y="383" text-anchor="middle" fill="#60779a" font-size="15">placeholder image</text>
    <text x="211" y="146" text-anchor="middle" fill="#214b8d" font-size="18" font-weight="700">Literature</text>
    <text x="211" y="178" text-anchor="middle" fill="#60779a" font-size="13">PubMed evidence</text>
    <text x="211" y="344" text-anchor="middle" fill="#214b8d" font-size="18" font-weight="700">Neo4j</text>
    <text x="211" y="376" text-anchor="middle" fill="#60779a" font-size="13">tekg3 runtime</text>
    <text x="211" y="542" text-anchor="middle" fill="#214b8d" font-size="18" font-weight="700">Expression</text>
    <text x="211" y="574" text-anchor="middle" fill="#60779a" font-size="13">bulk matrices</text>
    <text x="769" y="146" text-anchor="middle" fill="#214b8d" font-size="18" font-weight="700">Browse</text>
    <text x="769" y="178" text-anchor="middle" fill="#60779a" font-size="13">entity catalog</text>
    <text x="769" y="344" text-anchor="middle" fill="#214b8d" font-size="18" font-weight="700">G6 Graph</text>
    <text x="769" y="376" text-anchor="middle" fill="#60779a" font-size="13">interactive preview</text>
    <text x="769" y="542" text-anchor="middle" fill="#214b8d" font-size="18" font-weight="700">Download</text>
    <text x="769" y="574" text-anchor="middle" fill="#60779a" font-size="13">public exports</text>
  </g>
  <g fill="#2f63b9">
    <circle cx="430" cy="426" r="6"/>
    <circle cx="456" cy="426" r="6"/>
    <circle cx="482" cy="426" r="6"/>
    <circle cx="508" cy="426" r="6"/>
    <circle cx="534" cy="426" r="6"/>
    <circle cx="560" cy="426" r="6"/>
  </g>
</svg>
